<?xml version="1.0" encoding="utf-8"?>
<!-- Generator: Adobe Illustrator 16.0.0, SVG Export Plug-In . SVG Version: 6.00 Build 0)  -->
<!DOCTYPE svg PUBLIC "-//W3C//DTD SVG 1.1//EN" "http://www.w3.org/Graphics/SVG/1.1/DTD/svg11.dtd">
<svg version="1.1" id="图层_1" xmlns="http://www.w3.org/2000/svg" xmlns:xlink="http://www.w3.org/1999/xlink" x="0px" y="0px"
	 width="100px" height="100px" viewBox="0 0 100 100" style="enable-background:new 0 0 100 100;" xml:space="preserve">
<g>
	<path style="fill:#FFFFFF;stroke:#000000;stroke-width:6;stroke-linecap:round;stroke-miterlimit:10;" d="M95.636,42.712
		c-1.794-11.318-7.691-21.267-16.127-28.273"/>
	<path style="fill:#FFFFFF;stroke:#000000;stroke-width:6;stroke-linecap:round;stroke-miterlimit:10;" d="M65.173,6.349
		C60.419,4.696,55.316,3.787,50,3.787c-5.317,0-10.419,0.909-15.174,2.562"/>
	<path style="fill:#FFFFFF;stroke:#000000;stroke-width:6;stroke-linecap:round;stroke-miterlimit:10;" d="M4.364,57.288
		c1.793,11.317,7.691,21.267,16.125,28.272"/>
	<path style="fill:#FFFFFF;stroke:#000000;stroke-width:6;stroke-linecap:round;stroke-miterlimit:10;" d="M20.49,14.439
		C12.056,21.446,6.157,31.395,4.364,42.712"/>
	<path style="fill:#FFFFFF;stroke:#000000;stroke-width:6;stroke-linecap:round;stroke-miterlimit:10;" d="M34.826,93.65
		c4.754,1.653,9.856,2.563,15.174,2.563c5.316,0,10.419-0.909,15.173-2.563"/>
	<path style="fill:#FFFFFF;stroke:#000000;stroke-width:6;stroke-linecap:round;stroke-miterlimit:10;" d="M79.509,85.562
		c8.436-7.006,14.333-16.956,16.127-28.273"/>
</g>
</svg>
