<?xml version="1.0" encoding="utf-8"?>
<!-- Generator: Adobe Illustrator 16.0.0, SVG Export Plug-In . SVG Version: 6.00 Build 0)  -->
<!DOCTYPE svg PUBLIC "-//W3C//DTD SVG 1.1//EN" "http://www.w3.org/Graphics/SVG/1.1/DTD/svg11.dtd">
<svg version="1.1" id="图层_1" xmlns="http://www.w3.org/2000/svg" xmlns:xlink="http://www.w3.org/1999/xlink" x="0px" y="0px"
	 width="120px" height="120px" viewBox="0 0 120 120" style="enable-background:new 0 0 120 120;" xml:space="preserve">
<rect style="display:none;fill:#1B1464;" width="120" height="120"/>
<g>
	<linearGradient id="SVGID_1_" gradientUnits="userSpaceOnUse" x1="60" y1="104.0791" x2="60" y2="15.9219">
		<stop  offset="0" style="stop-color:#968C7F"/>
		<stop  offset="0.2149" style="stop-color:#7F7263"/>
		<stop  offset="0.5558" style="stop-color:#604F3D"/>
		<stop  offset="0.8296" style="stop-color:#4C3926"/>
		<stop  offset="1" style="stop-color:#45311D"/>
	</linearGradient>
	<path style="fill:url(#SVGID_1_);" d="M64.435,103.051c-2.382,1.375-6.276,1.37-8.654-0.01L25.033,85.194
		c-2.378-1.38-4.33-4.76-4.335-7.51l-0.082-35.55c-0.006-2.75,1.938-6.125,4.319-7.5L55.565,16.95
		c2.381-1.375,6.276-1.371,8.654,0.01l30.747,17.846c2.378,1.38,4.329,4.76,4.336,7.51l0.081,35.551
		c0.007,2.75-1.937,6.125-4.318,7.5L64.435,103.051z"/>
	<path style="fill:none;stroke:#FFFFFF;stroke-width:8;stroke-miterlimit:10;" d="M64.435,103.051
		c-2.382,1.375-6.276,1.37-8.654-0.01L25.033,85.194c-2.378-1.38-4.33-4.76-4.335-7.51l-0.082-35.55
		c-0.006-2.75,1.938-6.125,4.319-7.5L55.565,16.95c2.381-1.375,6.276-1.371,8.654,0.01l30.747,17.846
		c2.378,1.38,4.329,4.76,4.336,7.51l0.081,35.551c0.007,2.75-1.937,6.125-4.318,7.5L64.435,103.051z"/>
</g>
<polygon style="fill:#FFFFFF;" points="60.207,27.468 61.861,30.821 65.563,31.358 62.885,33.969 63.517,37.654 60.207,35.914 
	56.897,37.654 57.529,33.969 54.852,31.358 58.552,30.821 "/>
<polygon style="fill:#FFFFFF;" points="60.207,82.468 61.861,85.82 65.563,86.358 62.885,88.969 63.517,92.654 60.207,90.914 
	56.897,92.654 57.529,88.969 54.852,86.358 58.552,85.82 "/>
<circle style="fill:none;stroke:#FFFFFF;stroke-width:2;stroke-miterlimit:10;" cx="60" cy="60" r="11"/>
<circle style="fill:#FFFFFF;" cx="60" cy="60" r="8.601"/>
<polygon style="fill:#FFFFFF;fill-opacity:0.3;" points="24.167,39.75 44.056,25.813 55.333,39.75 "/>
<polygon style="fill:#FFFFFF;fill-opacity:0.15;" points="42.653,43.656 35.909,56 50,56 "/>
<polygon style="fill:#FFFFFF;fill-opacity:0.1;" points="20.604,61.834 45,61.834 27.167,90.833 "/>
<polygon style="fill:#FFFFFF;fill-opacity:0.3;" points="60,62.667 47.167,87.833 73,87.667 "/>
<polygon style="fill:#FFFFFF;fill-opacity:0.1;" points="69.5,23.5 60,60 102.5,50 93.737,34.092 "/>
<polygon style="fill:#FFFFFF;fill-opacity:0.1;" points="68.862,65 85.334,63.5 76,73.834 "/>
<polygon style="fill:#FFFFFF;fill-opacity:0.1;" points="100.667,73.667 91.167,60 77.334,77.947 91.5,87.667 "/>
<polygon style="fill:#FFFFFF;fill-opacity:0.2;" points="70.894,36.133 71.151,47.103 80.671,41.607 "/>
</svg>
